<svg width="512" height="512" viewBox="0 0 512 512" fill="none" xmlns="http://www.w3.org/2000/svg">
<rect width="512" height="512" fill="#5F1965"/>
<path d="M24 311.974V299.98H55.1127V314.319C55.1127 329.289 61.696 334.7 72.157 334.7C82.6181 334.7 89.2014 329.289 89.2014 313.778C89.2014 296.463 82.6181 285.37 61.0647 266.522C33.5593 242.264 24.6313 225.219 24.6313 201.321C24.6313 168.405 41.6756 149.286 73.6901 149.286C105.705 149.286 121.577 168.405 121.577 201.952V210.61H90.4639V199.788C90.4639 184.818 84.5119 179.136 73.9607 179.136C63.4094 179.136 57.4574 184.818 57.4574 199.157C57.4574 214.397 64.3112 225.49 85.8647 244.338C113.37 268.597 122.118 285.37 122.118 311.343C122.118 345.431 104.803 364.64 72.4276 364.64C40.1425 364.73 24 345.522 24 311.974Z" fill="white"/>
<path d="M146.468 149.195H180.286V236.942H216.629V149.195H250.447V364.639H216.629V267.694H180.286V364.639H146.468V149.195Z" fill="white"/>
<path d="M341.62 338.487V300.61C341.62 276.261 336.119 260.299 319.165 255.068V254.437C334.225 248.305 341.35 234.146 341.35 211.962V198.795C341.35 165.518 326.289 149.195 291.209 149.195H274.886V179.947H290.307C302.301 179.947 307.532 186.711 307.532 202.132V218.725C307.532 235.95 299.866 241.541 287.241 241.541H274.886V272.293H286.609C302.03 272.293 307.802 278.786 307.802 298.807V338.216C307.802 355.801 309.065 401.409 310.868 407H345.318C341.891 398.974 341.62 348.948 341.62 338.487Z" fill="#FFC400"/>
<path d="M393.745 149.195H369.577V186.711H369.757L384.817 293.215H369.577V322.434H388.785V321.803L394.918 364.639H428.736L393.745 149.195Z" fill="white"/>
<path fill-rule="evenodd" clip-rule="evenodd" d="M454.902 138.146V362.805H488.049V105H421.756V138.146H454.902ZM429.122 130.78H462.268V355.439H480.683V112.366H429.122V130.78Z" fill="#FFC400"/>
</svg>
