<svg width="53" height="35" viewBox="0 0 53 35" fill="none" xmlns="http://www.w3.org/2000/svg">
<path d="M0 23.6389V22.269H3.55345V23.9067C3.55345 25.6165 4.30534 26.2345 5.50012 26.2345C6.6949 26.2345 7.44679 25.6165 7.44679 23.8449C7.44679 21.8673 6.6949 20.6005 4.23324 18.4478C1.09178 15.6771 0.0720989 13.7305 0.0720989 11.001C0.0720989 7.24155 2.01877 5.05798 5.67521 5.05798C9.33166 5.05798 11.1444 7.24155 11.1444 11.0731V12.0619H7.59099V10.8259C7.59099 9.11612 6.9112 8.46723 5.70611 8.46723C4.50103 8.46723 3.82124 9.11612 3.82124 10.7538C3.82124 12.4945 4.60403 13.7614 7.06569 15.914C10.2071 18.6847 11.2062 20.6005 11.2062 23.5668C11.2062 27.4601 9.22866 29.654 5.53102 29.654C1.84367 29.6643 0 27.4704 0 23.6389Z" fill="white"/>
<path d="M13.9872 5.04761H17.8497V15.0694H22.0005V5.04761H25.863V29.6539H22.0005V18.5816H17.8497V29.6539H13.9872V5.04761Z" fill="white"/>
<path d="M36.2761 26.667V22.341C36.2761 19.5601 35.6478 17.737 33.7114 17.1396V17.0675C35.4315 16.3671 36.2452 14.7501 36.2452 12.2163V10.7125C36.2452 6.91188 34.5251 5.04761 30.5184 5.04761H28.6542V8.55986H30.4154C31.7853 8.55986 32.3827 9.33234 32.3827 11.0936V12.9888C32.3827 14.9561 31.5072 15.5947 30.0653 15.5947H28.6542V19.1069H29.9932C31.7544 19.1069 32.4136 19.8485 32.4136 22.1351V26.6361C32.4136 28.6446 32.5578 33.8535 32.7638 34.492H36.6984C36.307 33.5754 36.2761 27.8618 36.2761 26.667Z" fill="#FFC400"/>
<path d="M42.2294 5.04761H39.469V9.33234H39.4896L41.2097 21.4965H39.469V24.8336H41.6629V24.7615L42.3632 29.6539H46.2257L42.2294 5.04761Z" fill="white"/>
<path fill-rule="evenodd" clip-rule="evenodd" d="M49.2143 3.78571V29.4444H53V0H45.4286V3.78571H49.2143ZM46.2699 2.94444H50.0556V28.6032H52.1587V0.84127H46.2699V2.94444Z" fill="#FFC400"/>
</svg>
